custom-analysis
version=1
nRows=11
nColumns=42
inDegrees=no

This file contains tibia displacement and acting force.

Units are S.I. units (seconds, meters, Newtons, ...)
Angles are in degrees.

endheader
time	APT	SIT	knee_angle	aACL_R_force	pACL_R_force	aPCL_R_force	pPCL_R_force	aMCL_R_force	mMCL_R_force	pMCL_R_force	aLCL_R_force	mLCL_R_force	pLCL_R_force	aACL_R_length	pACL_R_length	aPCL_R_length	pPCL_R_length	aMCL_R_length	mMCL_R_length	pMCL_R_length	aLCL_R_length	mLCL_R_length	pLCL_R_length	aACL_R_strain	pACL_R_strain	aPCL_R_strain	pPCL_R_strain	aMCL_R_strain	mMCL_R_strain	pMCL_R_strain	aLCL_R_strain	mLCL_R_strain	pLCL_R_strain	femur_lat_meniscii_force_r	femur_lat_meniscii_torque_r	femur_med_meniscii_force_r	femur_med_meniscii_torque_r	femur_lat_tibia_force_r	femur_lat_tibia_torque_r	femur_med_tibia_force_r	femur_med_tibia_torque_r
      0.00000000	      0.00000000	      0.00000000	     60.00037120	      0.00000000	      0.00000000	    815.71272850	    453.89637191	     18.61649872	      0.46325593	      0.00000000	      0.00000000	      0.00000000	      0.00000000	      0.02913114	      0.02230180	      0.03632899	      0.03342351	      0.06109337	      0.06029194	      0.05707981	      0.05191542	      0.04708560	      0.04256936	     -0.08119596	     -0.13755154	      0.16831141	      0.11086586	      0.05284387	      0.00833597	     -0.06007421	     -0.07256141	     -0.16394227	     -0.18671832	    148.86853800	     57.35823146	     11.06401947	      4.48371675	    487.77549064	     17.81732630	      0.00000000	      0.00000000
      0.00100000	      0.00003236	      0.00005492	     60.00037120	      0.00000000	      0.00000000	    751.94919691	    310.58299051	    -56.04816524	    -77.62709367	      0.00000000	      0.00000000	      0.00000000	      0.00000000	      0.02912812	      0.02229396	      0.03625134	      0.03334534	      0.06103449	      0.06023008	      0.05701506	      0.05184513	      0.04701415	      0.04249533	     -0.08129122	     -0.13785467	      0.16581409	      0.10826767	      0.05182921	      0.00730149	     -0.06114045	     -0.07381695	     -0.16521091	     -0.18813269	    204.67395007	     80.00228671	     19.49315916	      7.89558108	    564.71734878	     20.18693585	      0.00000000	      0.00000000
      0.00271240	      0.00018594	      0.00024092	     60.00037120	      0.00000000	      0.00000000	    678.26396720	    210.84759449	    -70.63989272	    -93.42234265	      0.00000000	      0.00000000	      0.00000000	      0.00000000	      0.02917943	      0.02232640	      0.03594570	      0.03303578	      0.06082684	      0.06000827	      0.05677858	      0.05158708	      0.04675030	      0.04221766	     -0.07967282	     -0.13660016	      0.15598491	      0.09797916	      0.04825062	      0.00359178	     -0.06503458	     -0.07842700	     -0.16989584	     -0.19343754	    246.83013347	     97.00203452	     51.47458674	     20.81042918	    692.26340696	     24.59908857	     21.86673827	      0.50496969
      0.00442480	      0.00037520	      0.00036431	     60.00037120	      0.00000000	      0.00000000	    645.54376954	    213.58682796	    -31.40167659	    -52.65517598	      0.00000000	      0.00000000	      0.00000000	      0.00000000	      0.02934758	      0.02247957	      0.03565509	      0.03273778	      0.06066925	      0.05983285	      0.05658291	      0.05137696	      0.04653252	      0.04198018	     -0.07436932	     -0.13067661	      0.14663916	      0.08807504	      0.04553486	      0.00065815	     -0.06825664	     -0.08218052	     -0.17376276	     -0.19797448	    248.20882567	     97.75618074	     76.94318317	     31.03354947	    689.73342042	     24.70956636	    119.58819131	      2.91488876
      0.00552897	      0.00048827	      0.00038845	     60.00037120	      0.00000000	      0.00000000	    636.45246248	    229.97462518	     -8.41533646	      0.00000000	      0.00000000	      0.00000000	      0.00000000	      0.00000000	      0.02949719	      0.02262417	      0.03552286	      0.03259983	      0.06062025	      0.05977300	      0.05650996	      0.05130456	      0.04645537	      0.04189005	     -0.06965073	     -0.12508474	      0.14238690	      0.08348989	      0.04469038	     -0.00034285	     -0.06945791	     -0.08347406	     -0.17513275	     -0.19969649	    242.26375810	     95.38279582	     85.37255190	     34.38545344	    633.19090801	     22.86897151	    176.78865519	      4.29060095
      0.00663313	      0.00059231	      0.00038524	     60.00037120	      0.00000000	      0.00000000	    628.32215931	    238.14553681	      5.28456371	      0.00000000	      0.00000000	      0.00000000	      0.00000000	      0.00000000	      0.02965516	      0.02277868	      0.03542562	      0.03249667	      0.06059884	      0.05974159	      0.05646644	      0.05126883	      0.04641540	      0.04183776	     -0.06466824	     -0.11910962	      0.13925974	      0.08006124	      0.04432137	     -0.00086809	     -0.07017450	     -0.08411222	     -0.17584244	     -0.20069536	    230.12373459	     90.51829091	     90.24191863	     36.29336895	    564.34958257	     20.60419906	    218.63483202	      5.28415267
      0.00824552	      0.00073039	      0.00035972	     60.00037120	      0.00000000	      0.00000000	    619.11029714	    244.79141203	     12.56536555	      0.00000000	      0.00000000	      0.00000000	      0.00000000	      0.00000000	      0.02986814	      0.02298562	      0.03532463	      0.03238736	      0.06059180	      0.05972156	      0.05643150	      0.05125568	      0.04639721	      0.04180353	     -0.05795068	     -0.11110672	      0.13601190	      0.07642837	      0.04420015	     -0.00120314	     -0.07074994	     -0.08434715	     -0.17616548	     -0.20134934	    224.20221766	     87.70273225	     94.36964475	     37.97014227	    473.26613994	     17.51263917	    257.26377353	      6.06519876
      0.00985792	      0.00085949	      0.00033174	     60.00037120	      0.00000000	      0.00000000	    609.75891107	    243.06421908	     13.06070865	      0.00000000	      0.00000000	      0.00000000	      0.00000000	      0.00000000	      0.03003992	      0.02314656	      0.03524981	      0.03230494	      0.06059317	      0.05971140	      0.05641004	      0.05126453	      0.04640236	      0.04179494	     -0.05253268	     -0.10488319	      0.13360563	      0.07368884	      0.04422366	     -0.00137303	     -0.07110335	     -0.08418915	     -0.17607406	     -0.20151342	    216.98838260	     84.80158935	    100.92357947	     40.70466369	    402.64723867	     15.07133824	    280.03354081	      6.42827108
      0.01147031	      0.00098257	      0.00031478	     60.00037120	      0.00000000	      0.00000000	    600.50442650	    237.98040253	      9.83230327	      0.00000000	      0.00000000	      0.00000000	      0.00000000	      0.00000000	      0.03015911	      0.02324853	      0.03518707	      0.03223548	      0.06059011	      0.05969811	      0.05638913	      0.05127977	      0.04641517	      0.04179632	     -0.04877357	     -0.10093963	      0.13158818	      0.07138029	      0.04417095	     -0.00159536	     -0.07144764	     -0.08391678	     -0.17584647	     -0.20148714	    210.68614616	     82.14703277	    107.09239700	     43.24528140	    360.51192255	     13.62213089	    294.55242324	      6.59151399
      0.01368376	      0.00113788	      0.00031412	     60.00037120	      0.00000000	      0.00000000	    590.02967538	    233.13763120	      5.51573893	      0.00000000	      0.00000000	      0.00000000	      0.00000000	      0.00000000	      0.03024093	      0.02329869	      0.03511312	      0.03215366	      0.06057183	      0.05966791	      0.05635379	      0.05130222	      0.04643605	      0.04180509	     -0.04619297	     -0.09899991	      0.12920985	      0.06866098	      0.04385599	     -0.00210047	     -0.07202952	     -0.08351578	     -0.17547576	     -0.20131951	    205.71001175	     79.94264319	    111.70363245	     45.15145841	    338.82852591	     12.90712014	    308.32240442	      6.68537995
      0.01589721	      0.00127658	      0.00032291	     60.00037120	      0.00000000	      0.00000000	    583.36627192	    232.20567793	      5.79391469	      0.00000000	      0.00000000	      0.00000000	      0.00000000	      0.00000000	      0.03026538	      0.02328720	      0.03505778	      0.03209141	      0.06054919	      0.05963533	      0.05632013	      0.05133486	      0.04646848	      0.04182839	     -0.04542182	     -0.09944432	      0.12743035	      0.06659200	      0.04346589	     -0.00264519	     -0.07258383	     -0.08293268	     -0.17489991	     -0.20087447	    196.44329799	     76.54978424	    117.60609101	     47.57757757	    332.59311333	     12.67580780	    312.10946839	      6.65200541
